<svg id="Capa_1" enable-background="new 0 0 512 512" height="512" viewBox="0 0 512 512" width="512" xmlns="http://www.w3.org/2000/svg"><path d="m457 41.139h-402c-30.327 0-55 24.673-55 55v160c0 30.327 24.673 55 55 55h123.474l35.206 137.188c2.74 10.677 15.71 14.85 24.162 7.77l21.344-17.881 22.736 27.255c5.323 6.381 14.814 7.209 21.16 1.882l51.726-43.403c6.333-5.313 7.173-14.75 1.877-21.099l-22.776-27.304 21.392-17.922c8.312-6.964 6.701-20.207-3.042-24.973l-43.987-21.513h148.728c30.327 0 55-24.673 55-55v-160c0-30.327-24.673-55-55-55zm-155.717 342.13 22.784 27.313-28.745 24.12-22.729-27.246c-5.321-6.379-14.804-7.207-21.151-1.89l-14.621 12.249-31.759-123.757 113.272 55.398-15.167 12.706c-6.339 5.312-7.183 14.756-1.884 21.107zm180.717-127.13c0 13.785-11.215 25-25 25-220.853 0-207.083-.16-209.396.329l-58.559-28.639c-11.474-5.609-24.294 4.831-21.12 17.203l2.85 11.107h-115.775c-13.785 0-25-11.215-25-25v-160c0-13.785 11.215-25 25-25h402c13.785 0 25 11.215 25 25z"/><path d="m121 101.139h-45c-8.284 0-15 6.716-15 15v120c0 8.284 6.716 15 15 15h45c24.813 0 45-20.187 45-45 0-11.515-4.347-22.033-11.486-30 7.139-7.967 11.486-18.485 11.486-30 0-24.813-20.187-45-45-45zm0 120h-30v-30h30c8.271 0 15 6.729 15 15s-6.729 15-15 15zm0-60h-30v-30h30c8.271 0 15 6.729 15 15s-6.729 15-15 15z"/><path d="m286 101.139c-8.284 0-15 6.716-15 15v82.5c0 12.406-10.093 22.5-22.5 22.5s-22.5-10.094-22.5-22.5v-82.5c0-8.284-6.716-15-15-15s-15 6.716-15 15v82.5c0 28.948 23.551 52.5 52.5 52.5s52.5-23.552 52.5-52.5v-82.5c0-8.284-6.716-15-15-15z"/><path d="m443.717 103.277c-7.103-4.263-16.316-1.96-20.58 5.145l-32.137 53.563-32.138-53.563c-4.262-7.104-13.478-9.406-20.58-5.145-7.104 4.262-9.407 13.476-5.145 20.58l42.863 71.437v40.845c0 8.284 6.716 15 15 15s15-6.716 15-15v-40.845l42.862-71.437c4.263-7.104 1.959-16.318-5.145-20.58z"/></svg>