<svg id="Capa_1" enable-background="new 0 0 512 512" height="512" viewBox="0 0 512 512" width="512" xmlns="http://www.w3.org/2000/svg"><g><path d="m332.969 110c0-38.598-31.402-70-70-70s-70 31.402-70 70 31.402 70 70 70 70-31.402 70-70zm-70 50c-27.57 0-50-22.43-50-50s22.43-50 50-50 50 22.43 50 50-22.429 50-50 50z"/><path d="m341.839 186.594c19.873-20.466 31.13-47.941 31.13-76.594 0-60.654-49.346-110-110-110s-110 49.346-110 110c0 28.661 11.263 56.143 31.142 76.607l-72.102 124.883-25.98-15c-4.781-2.76-10.898-1.122-13.66 3.66l-40 69.279c-1.326 2.297-1.686 5.026-.999 7.588.686 2.562 2.362 4.746 4.659 6.072l25.98 15-15 25.98c-2.762 4.783-1.123 10.898 3.66 13.66l34.64 20c4.75 2.744 10.882 1.151 13.66-3.66l134-232.096v150.027h-30c-5.523 0-10 4.478-10 10v80c0 5.522 4.477 10 10 10h30v30c0 5.522 4.477 10 10 10h40c5.523 0 10-4.478 10-10v-101c0-5.522-4.477-10-10-10s-10 4.478-10 10v91h-20v-30c0-5.522-4.477-10-10-10h-30v-20h30c5.523 0 10-4.478 10-10s-4.477-10-10-10h-30v-20h30c5.523 0 10-4.478 10-10v-174.01c0-4.754-3.347-8.851-8.004-9.799-41.477-8.452-71.996-45.281-71.996-88.191 0-49.626 40.374-90 90-90s90 40.374 90 90c0 42.831-30.448 79.725-71.996 88.191-4.658.948-8.004 5.045-8.004 9.799v103.01c0 5.522 4.477 10 10 10s10-4.478 10-10v-89.129l69.667 119.638-25.946 14.981c-4.783 2.762-6.422 8.877-3.66 13.66l40 69.279c2.762 4.782 8.876 6.421 13.66 3.66l25.979-15 15 25.98c2.776 4.808 8.907 6.406 13.66 3.66l34.64-20c4.787-2.764 6.425-8.895 3.649-13.679zm-255.19 248.816-17.319-10 15-25.98c2.762-4.783 1.123-10.898-3.66-13.66l-25.98-15 10-17.319 25.98 15c4.773 2.755 10.892 1.134 13.66-3.66 2.762-4.783 1.123-10.898-3.66-13.66l-25.98-15 10-17.319 25.98 15c4.789 2.768 10.904 1.113 13.66-3.66l75.234-130.308c5.465 3.874 11.245 7.22 17.305 10.019zm353.34 0-15-25.98c-2.76-4.78-8.879-6.424-13.66-3.66l-25.979 15-10-17.32 25.979-15c4.783-2.762 6.422-8.877 3.66-13.66s-8.877-6.422-13.66-3.66l-25.98 15-10-17.319 25.979-15c4.793-2.767 6.427-8.908 3.642-13.692l-75.862-130.276c6.057-2.8 11.831-6.144 17.286-10.013l130.896 225.593z"/><circle cx="282.969" cy="356" r="10"/></g></svg>