<?xml version="1.0" encoding="iso-8859-1"?>
<!-- Generator: Adobe Illustrator 19.0.0, SVG Export Plug-In . SVG Version: 6.00 Build 0)  -->
<svg version="1.1" id="Capa_1" xmlns="http://www.w3.org/2000/svg" xmlns:xlink="http://www.w3.org/1999/xlink" x="0px" y="0px"
	 viewBox="0 0 496 496" style="enable-background:new 0 0 496 496;" xml:space="preserve">
<g>
	<g>
		<g>
			<path d="M480,320v-48c0-32.728-19.784-60.896-48-73.272V0H0v496h304h8h184V320H480z M464,272v48h-16v-48
				c0-26.472-21.528-48-48-48s-48,21.528-48,48v48h-16v-48c0-35.288,28.712-64,64-64C435.288,208,464,236.712,464,272z M432,272v48
				h-64v-48c0-17.648,14.352-32,32-32S432,254.352,432,272z M304,320v160H16V54.184L42.36,128H184v48c0,17.648,14.352,32,32,32
				s32-14.352,32-32v-48h96v-16h-96V64c0-17.648-14.352-32-32-32s-32,14.352-32,32v48H53.64L19.352,16h393.304l-34.288,96H360v16
				h29.64L416,54.184v139.432c-5.168-1.056-10.52-1.616-16-1.616c-44.112,0-80,35.888-80,80v48H304z M216,96
				c5.856,0,11.272-1.696,16-4.448V112h-32V91.552C204.728,94.304,210.144,96,216,96z M200,64c0-8.824,7.176-16,16-16
				c8.824,0,16,7.176,16,16s-7.176,16-16,16C207.176,80,200,72.824,200,64z M232,128v20.448c-4.728-2.752-10.144-4.448-16-4.448
				s-11.272,1.696-16,4.448V128H232z M216,160c8.824,0,16,7.176,16,16c0,8.824-7.176,16-16,16c-8.824,0-16-7.176-16-16
				C200,167.176,207.176,160,216,160z M480,480H320V336h160V480z"/>
			<path d="M392,414.864V464h16v-49.136c13.768-3.576,24-15.992,24-30.864c0-17.648-14.352-32-32-32s-32,14.352-32,32
				C368,398.872,378.232,411.288,392,414.864z M400,368c8.824,0,16,7.176,16,16c0,8.824-7.176,16-16,16c-8.824,0-16-7.176-16-16
				C384,375.176,391.176,368,400,368z"/>
		</g>
	</g>
</g>
<g>
</g>
<g>
</g>
<g>
</g>
<g>
</g>
<g>
</g>
<g>
</g>
<g>
</g>
<g>
</g>
<g>
</g>
<g>
</g>
<g>
</g>
<g>
</g>
<g>
</g>
<g>
</g>
<g>
</g>
</svg>
