<svg id="Capa_1" enable-background="new 0 0 512 512" height="512" viewBox="0 0 512 512" width="512" xmlns="http://www.w3.org/2000/svg"><g><path d="m256 341.69c-3.578 0-6.479 2.901-6.479 6.479s2.901 6.479 6.479 6.479 6.479-2.901 6.479-6.479-2.901-6.479-6.479-6.479zm218.5-291.69h-141.065c-2.735-28.025-26.424-50-55.155-50h-44.56c-30.561 0-55.424 24.863-55.424 55.424v29.576h-135.796c-4.142 0-7.5 3.358-7.5 7.5v285c0 4.142 3.358 7.5 7.5 7.5h427c4.142 0 7.5-3.358 7.5-7.5v-285c0-4.142-3.358-7.5-7.5-7.5h-110.305c-4.142 0-7.5 3.358-7.5 7.5s3.358 7.5 7.5 7.5h102.805v270h-33.09v-39.53c0-26.492-15.65-50.545-39.956-61.314l-72.23-30.96c-10.998-4.714-18.104-15.491-18.104-27.456v-.105c21.112-13.906 35.084-37.809 35.084-64.926v-80.709h140.796c12.407 0 22.5 10.093 22.5 22.5v295c0 12.407-10.093 22.5-22.5 22.5h-437c-12.407 0-22.5-10.093-22.5-22.5v-295c0-12.407 10.093-22.5 22.5-22.5h115.782c4.142 0 7.5-3.358 7.5-7.5s-3.358-7.5-7.5-7.5h-115.782c-20.678 0-37.5 16.822-37.5 37.5v295c0 20.678 16.822 37.5 37.5 37.5h165.039l-22.742 47h-2.945c-12.407 0-22.5 10.093-22.5 22.5s10.093 22.5 22.5 22.5h158.296c12.407 0 22.5-10.093 22.5-22.5s-10.093-22.5-22.5-22.5h-2.945l-22.742-47h165.039c20.678 0 37.5-16.822 37.5-37.5v-295c0-20.678-16.822-37.5-37.5-37.5zm-391.41 320h-33.09v-270h128.296c1.149 11.084 0 35.176 0 45.709 0 27.117 13.972 51.02 35.084 64.926v.465c0 11.894-7.046 22.641-17.951 27.382l-71.311 31.006c-24.924 10.498-41.028 34.749-41.028 61.782zm231.908-116.224 67.963 29.131c18.801 8.331 30.949 27 30.949 47.563v39.53h-315.82v-38.73c0-20.983 12.502-39.808 31.931-47.992l67.599-29.391 49.139 33.288c3.463 2.346 7.469 3.514 11.471 3.514 4.278 0 8.551-1.334 12.149-3.989zm-14.484-7.954-39.041 28.807c-1.857 1.371-4.389 1.422-6.301.126l-43.007-29.134c8.341-6.92 13.954-16.689 15.661-27.516 8.742 3.414 18.238 5.309 28.174 5.309 9.957 0 19.472-1.903 28.229-5.331 1.816 10.995 7.653 20.862 16.285 27.739zm18.19-114.153c-2.388 5.629-6.781 13.222-14.614 19.683-3.163 2.609-6.606 4.807-10.285 6.579-3.504-6.252-10.188-10.493-17.85-10.493h-15.723c-11.28 0-20.458 9.177-20.458 20.458s9.177 20.458 20.458 20.458h15.723c9.346 0 17.23-6.307 19.666-14.884 7.964-3.095 15.269-7.725 21.451-13.602-6.438 27.776-31.367 48.546-61.072 48.546-34.575 0-62.704-28.129-62.704-62.705v-35.838c0-5.418 2.577-10.264 7.069-13.293 4.514-3.044 9.984-3.59 14.973-1.57l33.58 13.581c22.752 9.202 49.391 6.139 69.786-7.583zm-37.292 36.245c-.01 3.001-2.454 5.439-5.457 5.439h-15.723c-3.009 0-5.458-2.448-5.458-5.458 0-3.009 2.448-5.458 5.458-5.458h15.723c3.002 0 5.444 2.436 5.456 5.435 0 .014.001.028.001.042zm37.292-84.287-12.474 7.3c-15.605 9.129-34.927 10.535-51.688 3.756l-33.58-13.581c-9.098-3.68-19.322-2.832-27.667 2.209v-27.887c.001-22.29 18.135-40.424 40.425-40.424h44.561c22.29 0 40.424 18.134 40.424 40.424v28.203zm16.444 398.373c4.136 0 7.5 3.364 7.5 7.5s-3.364 7.5-7.5 7.5h-158.296c-4.136 0-7.5-3.364-7.5-7.5s3.364-7.5 7.5-7.5zm-19.609-15h-119.078l22.742-47h73.595zm-59.539-155.31c-3.578 0-6.479 2.901-6.479 6.479s2.901 6.479 6.479 6.479 6.479-2.901 6.479-6.479-2.901-6.479-6.479-6.479z"/></g></svg>