<svg id="Capa_1" enable-background="new 0 0 511.628 511.628" height="512" viewBox="0 0 511.628 511.628" width="512" xmlns="http://www.w3.org/2000/svg"><g><path d="m431.731 376.759 22.696-86.185c16.438-4.483 28.56-19.536 28.56-37.374 0-16.966-10.968-31.41-26.182-36.64l-27.49-74.547c6.522-2.707 11.124-9.138 11.124-16.628v-19.59c10.543-4.193 18.02-14.492 18.02-26.512v-34.948c5.738-2.794 9.712-8.668 9.712-15.468v-11.655c-.001-9.491-7.722-17.212-17.213-17.212h-29.147c-4.143 0-7.5 3.358-7.5 7.5s3.357 7.5 7.5 7.5h29.147c1.22 0 2.212.992 2.212 2.212v11.655c0 1.22-.992 2.212-2.212 2.212h-381.22c-1.22 0-2.212-.992-2.212-2.212v-11.655c0-1.22.992-2.212 2.212-2.212h320.11c4.143 0 7.5-3.358 7.5-7.5s-3.357-7.5-7.5-7.5h-320.11c-9.49 0-17.212 7.721-17.212 17.212v11.655c0 6.8 3.974 12.674 9.712 15.468v34.948c0 11.245 6.543 20.988 16.02 25.631v20.471c0 7.821 5.023 14.474 12.005 16.951l-27.371 74.224c-15.214 5.23-26.182 19.674-26.182 36.64 0 17.839 12.123 32.891 28.56 37.374l24.447 92.836h-13.573c-7.441 0-14.468 3.256-19.278 8.932l-23.78 28.061c-3.863 4.559-5.991 10.361-5.991 16.337v62.827c0 6.65 5.41 12.06 12.06 12.06h62.694c5.986 0 11.075-4.646 11.588-10.579 1.557-18.061 16.998-32.208 35.154-32.208 18.157 0 33.6 14.147 35.155 32.209.513 5.932 5.602 10.579 11.588 10.579h114.188c5.986 0 11.076-4.646 11.588-10.579 1.557-18.061 16.999-32.208 35.155-32.208s33.599 14.147 35.155 32.209c.512 5.932 5.602 10.579 11.588 10.579h69.466c6.649 0 12.06-5.41 12.06-12.06v-62.961c0-30.718-23.078-56.128-52.803-59.849zm37.803 59.847v28.802h-17.788v-38.793c0-1.705 1.387-3.092 3.092-3.092h12.764c1.251 4.146 1.932 8.536 1.932 13.083zm-290.805-343.798 23.394-46.729h35.179l-23.395 46.729zm-51.952 0 23.394-46.729h35.178l-23.394 46.729zm-33.765 125.877c-4.113-2.102-8.645-3.495-13.439-4.005l26.291-71.296h14.916zm43.141-90.301h-39.897c-1.653 0-2.999-1.345-2.999-2.999v-17.577h45.895v17.577c0 1.654-1.346 2.999-2.999 2.999zm117.923-82.305h35.178l-23.394 46.729h-35.178zm87.13 0-23.395 46.729h-35.178l23.395-46.729zm51.953 0-23.394 46.729h-35.179l23.395-46.729zm32.28 79.306c0 1.654-1.346 2.999-2.999 2.999h-39.896c-1.653 0-2.999-1.345-2.999-2.999v-17.577h45.895v17.577zm-189.038-17.577h45.895v17.577c0 1.654-1.346 2.999-2.999 2.999h-39.897c-1.653 0-2.999-1.345-2.999-2.999zm16.449 35.576h13.996v56.959c-2.272-.416-4.608-.645-6.998-.645s-4.726.229-6.998.645zm6.998 71.314c13.091 0 23.741 10.65 23.741 23.742 0 13.091-10.65 23.741-23.741 23.741s-23.741-10.65-23.741-23.741c0-13.092 10.65-23.742 23.741-23.742zm-6.998 61.837c2.272.416 4.608.645 6.998.645s4.726-.229 6.998-.645v22.231h-13.996zm28.996-6.23c10.106-6.998 16.743-18.669 16.743-31.865 0-13.197-6.637-24.867-16.743-31.865v-63.392c8.718-1.245 15.449-8.74 15.449-17.797v-17.577h67.249v17.577c0 9.925 8.074 17.999 17.999 17.999h.386l6.295 17.07c1.118 3.031 3.986 4.907 7.038 4.907.861 0 1.738-.149 2.594-.465 3.887-1.433 5.875-5.745 4.442-9.631l-4.381-11.88h14.915l26.291 71.296c-4.795.509-9.326 1.903-13.439 4.005l-12.327-33.43c-1.434-3.886-5.745-5.876-9.632-4.442-3.887 1.433-5.875 5.745-4.442 9.631l14.066 38.144c-5.523 6.697-8.844 15.274-8.844 24.611 0 8.436 2.718 16.244 7.314 22.613l-17.091 64.9c-10.466-25.234-35.241-41.947-62.79-41.947h-51.091v-28.462zm143.533 16.714c4.04 2.263 8.521 3.824 13.283 4.514l-22.315 84.739h-7.966l-3.724-10.565zm42.608-33.819c0 13.091-10.65 23.741-23.741 23.741s-23.741-10.65-23.741-23.741 10.65-23.741 23.741-23.741 23.741 10.65 23.741 23.741zm-24.529-173.917c0 7.458-6.067 13.525-13.524 13.525h-43.396l23.394-46.729h33.526zm-366.22-33.204h56.159l-23.394 46.729h-19.241c-7.457 0-13.524-6.067-13.524-13.525zm-25.529 207.121c0-13.091 10.65-23.741 23.741-23.741s23.741 10.65 23.741 23.741-10.65 23.741-23.741 23.741-23.741-10.65-23.741-23.741zm53.112 128.663-23.787-90.329c4.768-.691 9.255-2.255 13.299-4.523l25.535 96.4h-14.809c-.026-.513-.102-1.032-.238-1.548zm-50.665 36.878h20.764v13.5h-31.781c.372-.763.834-1.484 1.39-2.139zm44.704 77.887h-56.766v-16.219h62.145c-2.694 5.03-4.524 10.506-5.379 16.219zm94.082-16.219h87.577v16.219h-82.197c-.856-5.713-2.686-11.189-5.38-16.219zm113.592 16.219h-11.015v-16.219h16.394c-2.694 5.03-4.524 10.506-5.379 16.219zm17.65-31.219h-28.665v-74.136h72.654c3.139 0 6.095-1.53 7.908-4.092 1.812-2.561 2.271-5.856 1.228-8.815l-8.544-24.239c-5.347-15.169-19.745-25.36-35.828-25.36h-93.21c-12.541 0-24.258 6.177-31.342 16.523l-21.112 30.825c-2.035 2.974-2.255 6.802-.574 9.99 1.682 3.188 4.965 5.168 8.568 5.168h85.252v74.136h-99.847c-9.01-7.476-20.3-11.568-32.082-11.568-11.781 0-23.07 4.093-32.081 11.568h-74.415v-18.168h35.17c6.979 0 12.656-5.678 12.656-12.657v-18.186c0-6.979-5.678-12.657-12.656-12.657h-10.396l1.441-1.701c1.955-2.307 4.811-3.63 7.835-3.63h70.457c4.521 0 8.745-2.227 11.302-5.958l13.778-20.119c2.341-3.417 1.468-8.085-1.949-10.426-3.418-2.34-8.087-1.466-10.426 1.95l-13.391 19.552h-10.531l-28.503-107.603c4.593-6.368 7.31-14.174 7.31-22.607 0-9.338-3.321-17.914-8.844-24.611l31.431-85.236c9.634-.334 17.373-8.254 17.373-17.967v-17.577h64.356c.009 0 .017.001.026.001.007 0 .014-.001.021-.001h2.846v17.577c0 9.402 7.249 17.131 16.449 17.921v63.268c-10.106 6.999-16.743 18.669-16.743 31.865s6.637 24.867 16.743 31.865v28.49c-21.731.598-41.89 11.543-54.217 29.543l-6.257 9.136c-2.341 3.417-1.468 8.085 1.949 10.426 3.42 2.341 8.087 1.468 10.426-1.95l6.258-9.136c9.883-14.432 26.226-23.047 43.718-23.047h93.21c22.435 0 42.518 14.216 49.976 35.374l11.628 32.988c1.928 5.47 7.12 9.145 12.919 9.145h16.74c14.397 0 27.239 6.754 35.549 17.251h-4.911c-9.976 0-18.092 8.116-18.092 18.092v38.793h-48.399c-9.01-7.476-20.3-11.568-32.082-11.568-11.78-.001-23.069 4.092-32.08 11.568zm-28.665-121.643h37.418c9.732 0 18.446 6.167 21.682 15.347l6.048 17.16h-65.147v-32.507zm-15 32.506h-75.174l15.416-22.508c4.287-6.261 11.377-9.999 18.966-9.999h40.792zm125.478 120.356c-.855-5.713-2.686-11.189-5.38-16.219h68.917v16.219z"/><path d="m259.848 247.828c4.143 0 7.5-3.358 7.5-7.5v-2.889c0-4.142-3.357-7.5-7.5-7.5s-7.5 3.358-7.5 7.5v2.889c0 4.142 3.358 7.5 7.5 7.5z"/><path d="m436.746 252.2v2.889c0 4.142 3.357 7.5 7.5 7.5s7.5-3.358 7.5-7.5v-2.889c0-4.142-3.357-7.5-7.5-7.5s-7.5 3.358-7.5 7.5z"/><path d="m82.951 255.089v-2.889c0-4.142-3.357-7.5-7.5-7.5s-7.5 3.358-7.5 7.5v2.889c0 4.142 3.357 7.5 7.5 7.5s7.5-3.358 7.5-7.5z"/></g></svg>