<svg xmlns="http://www.w3.org/2000/svg" height="512pt" version="1.1" viewBox="-61 0 512 512" width="512pt">
<g id="surface1">
<path d="M 30 467 C 30 491.8125 50.1875 512 75 512 L 315 512 C 339.8125 512 360 491.8125 360 467 L 360 141.929688 C 377.914062 131.535156 390 112.160156 390 90 L 390 75 C 390 72.667969 389.386719 70.230469 388.414062 68.292969 L 358.414062 8.292969 C 355.875 3.210938 350.683594 0 345 0 C 308.960938 0 79.210938 0 45 0 C 39.316406 0 34.125 3.210938 31.582031 8.292969 L 1.582031 68.292969 C 0.621094 70.21875 0 72.644531 0 75 L 0 90 C 0 112.160156 12.085938 131.535156 30 141.929688 Z M 315 482 L 75 482 C 66.730469 482 60 475.269531 60 467 L 60 452 L 330 452 L 330 467 C 330 475.269531 323.269531 482 315 482 Z M 330 120 C 313.457031 120 300 106.53125 300 89.988281 L 360 89.988281 C 360 106.53125 346.542969 120 330 120 Z M 30 89.988281 L 90 89.988281 C 90 106.53125 76.542969 120 60 120 C 43.457031 120 30 106.53125 30 89.988281 Z M 180 30 L 180 60 L 125.160156 60 L 134.160156 30 Z M 255.839844 30 L 264.839844 60 L 210 60 L 210 30 Z M 180 90 C 180 106.542969 166.542969 120 150 120 C 133.457031 120 120 106.542969 120 90 Z M 270 90 C 270 106.542969 256.542969 120 240 120 C 223.457031 120 210 106.542969 210 90 Z M 350.730469 60 L 296.160156 60 L 287.160156 30 L 335.730469 30 Z M 54.269531 30 L 102.839844 30 L 93.839844 60 L 39.269531 60 Z M 105 129.621094 C 116.003906 142.105469 132.09375 150 150 150 C 167.90625 150 183.996094 142.105469 195 129.621094 C 206.003906 142.105469 222.09375 150 240 150 C 257.90625 150 273.996094 142.105469 285 129.621094 C 296.003906 142.105469 312.09375 150 330 150 L 330 422 L 60 422 L 60 150 C 77.90625 150 93.996094 142.105469 105 129.621094 Z M 105 129.621094 " style=" stroke:none;fill-rule:nonzero;fill:rgb(0%,0%,0%);fill-opacity:1;" />
<path d="M 105 300 L 120 300 L 120 375 C 120 383.285156 126.714844 390 135 390 L 255 390 C 263.285156 390 270 383.285156 270 375 L 270 300 L 285 300 C 293.285156 300 300 293.285156 300 285 L 300 255 C 300 234.277344 285.914062 216.789062 266.820312 211.585938 C 268.863281 206.449219 270 200.855469 270 195 C 270 170.1875 249.8125 150 225 150 C 213.484375 150 202.96875 154.355469 195 161.496094 C 187.03125 154.355469 176.515625 150 165 150 C 140.1875 150 120 170.1875 120 195 C 120 200.855469 121.136719 206.449219 123.179688 211.585938 C 104.085938 216.789062 90 234.277344 90 255 L 90 285 C 90 293.285156 96.714844 300 105 300 Z M 240 360 L 150 360 L 150 300 L 180 300 L 180 315 C 180 323.285156 186.714844 330 195 330 C 203.285156 330 210 323.285156 210 315 L 210 300 L 240 300 Z M 270 270 L 210 270 L 210 240 C 224.09375 240 240.949219 240 255 240 C 263.269531 240 270 246.730469 270 255 Z M 225 180 C 233.269531 180 240 186.730469 240 195 C 240 203.269531 233.269531 210 225 210 L 210 210 L 210 195 C 210 186.730469 216.730469 180 225 180 Z M 165 180 C 173.269531 180 180 186.730469 180 195 L 180 210 L 165 210 C 156.730469 210 150 203.269531 150 195 C 150 186.730469 156.730469 180 165 180 Z M 120 255 C 120 246.730469 126.730469 240 135 240 C 149.050781 240 165.90625 240 180 240 L 180 270 L 120 270 Z M 120 255 " style=" stroke:none;fill-rule:nonzero;fill:rgb(0%,0%,0%);fill-opacity:1;" />
</g>
</svg>